<!DOCTYPE svg PUBLIC "-//W3C//DTD SVG 20010904//EN" "http://www.w3.org/TR/2001/REC-SVG-20010904/DTD/svg10.dtd">
<svg version="1.0" xmlns="http://www.w3.org/2000/svg" width="665px" height="676px" viewBox="0 0 6650 6760" preserveAspectRatio="xMidYMid meet">
<g id="layer101" fill="#050505" stroke="none">
<path d="M3486 6753 c-1 -2 -86 -5 -188 -8 -102 -2 -197 -9 -212 -15 -16 -6 -60 -13 -99 -16 -40 -3 -75 -8 -78 -10 -3 -2 -35 -6 -70 -9 -78 -7 -388 -87 -445 -114 -23 -11 -59 -27 -80 -34 -101 -38 -162 -65 -333 -150 -688 -342 -1226 -915 -1517 -1612 -84 -203 -184 -528 -197 -642 -2 -16 -7 -35 -10 -40 -8 -12 -20 -115 -19 -160 0 -18 -4 -33 -9 -33 -6 0 -7 -9 -4 -20 3 -11 3 -20 -2 -20 -4 0 -9 -24 -9 -52 -1 -29 -5 -118 -9 -198 -8 -170 -7 -138 -1 -280 3 -63 9 -145 15 -182 5 -37 8 -79 6 -95 -1 -15 3 -43 10 -63 7 -20 18 -69 24 -108 6 -39 20 -93 30 -119 10 -27 22 -72 26 -102 4 -30 14 -69 21 -87 8 -18 14 -46 14 -61 0 -14 7 -56 16 -91 14 -56 14 -66 2 -78 -12 -12 -20 -13 -44 -3 -16 7 -49 15 -74 19 -25 4 -77 13 -116 19 -52 9 -78 9 -99 1 l-29 -11 69 -36 c194 -99 379 -226 481 -329 67 -68 128 -175 122 -214 -4 -31 -98 -80 -208 -109 -53 -14 -95 -32 -111 -47 -14 -13 -33 -24 -42 -24 -9 0 -17 -4 -17 -8 0 -7 -33 -28 -111 -69 -32 -16 -44 -31 -51 -60 -8 -30 11 -34 58 -13 24 12 59 18 91 18 28 -1 58 4 65 10 8 6 35 11 60 10 25 0 51 3 57 6 6 4 17 4 24 -1 14 -9 6 -8 92 -17 79 -10 87 -11 132 -25 17 -5 33 -7 36 -5 2 3 10 -2 17 -11 7 -8 27 -15 45 -15 18 0 48 -10 67 -23 18 -12 49 -31 68 -41 19 -11 46 -30 60 -43 14 -13 29 -23 33 -23 12 0 97 -60 128 -91 14 -14 43 -36 65 -49 21 -13 41 -27 44 -30 3 -4 12 -9 21 -12 33 -13 106 -74 117 -99 9 -20 18 -25 42 -23 22 1 36 -5 50 -23 28 -35 25 -47 -15 -74 -19 -13 -35 -32 -35 -41 0 -10 -7 -18 -17 -18 -22 0 -92 -74 -127 -135 -16 -28 -33 -53 -38 -56 -6 -3 -9 -8 -8 -10 0 -2 -5 -20 -13 -39 -26 -63 -29 -80 -15 -80 7 0 26 14 41 30 16 17 34 30 41 30 7 0 30 13 53 30 22 16 42 27 45 24 3 -3 27 9 54 25 26 17 52 31 57 31 5 0 21 8 35 19 15 10 86 33 158 52 l131 33 42 -18 c22 -11 41 -22 41 -26 0 -4 -42 -18 -92 -30 -51 -13 -112 -31 -134 -41 -23 -10 -63 -20 -89 -23 -26 -2 -51 -8 -54 -13 -7 -9 -56 -29 -111 -45 -19 -5 -39 -14 -44 -19 -6 -5 -18 -9 -28 -9 -10 0 -18 -4 -18 -10 0 -5 -7 -7 -15 -4 -8 4 -15 2 -15 -3 0 -5 -16 -15 -35 -23 -20 -8 -43 -22 -52 -32 -9 -10 -23 -18 -32 -18 -17 0 -90 -60 -75 -60 5 -1 0 -6 -12 -13 -28 -16 -76 -74 -99 -117 -32 -63 -35 -70 -35 -85 0 -22 18 -18 25 5 3 11 13 20 21 20 8 0 14 5 14 10 0 18 43 70 57 70 8 0 16 7 19 15 4 8 10 15 15 15 6 0 19 8 30 18 11 11 45 25 77 32 31 7 68 17 82 23 14 5 34 11 46 12 11 2 38 8 60 14 54 14 106 22 194 26 41 3 101 8 133 13 31 5 67 8 80 6 12 -1 26 -3 30 -3 12 -1 -19 -31 -32 -31 -6 0 -11 -4 -11 -10 0 -5 -18 -18 -40 -28 -22 -10 -38 -21 -34 -24 3 -4 -10 -13 -28 -22 -19 -9 -41 -29 -50 -44 -9 -15 -30 -40 -47 -57 -17 -16 -31 -38 -31 -47 0 -9 -3 -18 -7 -20 -14 -6 -62 -86 -69 -114 -4 -15 -13 -39 -20 -53 -7 -13 -10 -29 -7 -34 6 -9 22 6 64 62 32 43 90 101 101 101 6 0 9 3 5 6 -8 8 22 36 58 54 17 8 51 30 78 48 26 19 47 28 47 22 0 -9 4 -9 12 -2 7 5 28 13 46 17 17 3 32 10 32 15 0 8 54 22 96 25 11 1 24 4 30 7 14 9 161 49 171 46 15 -3 93 14 98 22 4 7 37 13 155 25 19 2 67 9 105 15 76 13 154 13 186 2 15 -6 2 -12 -53 -26 -40 -11 -91 -27 -113 -36 -22 -10 -56 -21 -75 -25 -19 -4 -39 -11 -45 -15 -5 -5 -37 -16 -70 -25 -33 -10 -64 -21 -70 -25 -5 -4 -25 -11 -44 -15 -19 -4 -56 -20 -83 -36 -27 -16 -53 -29 -58 -29 -6 0 -10 -4 -10 -9 0 -5 -13 -12 -29 -16 -16 -3 -41 -17 -56 -31 -14 -13 -29 -24 -33 -24 -7 0 -32 -24 -73 -68 -27 -29 -42 -62 -27 -62 26 0 128 24 128 31 0 3 21 12 48 19 26 7 52 17 57 21 14 10 132 41 172 44 17 2 47 8 65 14 89 28 160 41 219 41 35 0 95 8 131 19 37 10 69 17 71 15 14 -15 183 1 233 22 25 10 40 12 48 5 7 -6 16 -7 22 -2 12 13 126 41 136 35 5 -3 7 0 6 7 -2 7 14 17 37 22 21 6 50 21 64 33 14 13 30 24 36 24 5 0 22 7 38 14 26 14 27 14 27 -8 0 -26 -29 -117 -41 -130 -5 -6 -9 -23 -9 -38 0 -15 -4 -28 -10 -28 -5 0 -7 -7 -4 -15 4 -8 1 -15 -5 -15 -6 0 -11 -6 -11 -13 0 -7 -9 -20 -20 -30 -11 -9 -20 -24 -20 -32 0 -9 -5 -13 -10 -10 -11 7 -26 -22 -17 -31 8 -8 119 25 137 41 8 7 25 16 37 19 12 4 38 22 56 39 44 42 95 86 103 90 14 5 104 99 104 108 0 5 5 9 11 9 6 0 17 7 25 15 9 8 12 15 8 15 -5 0 12 20 36 45 24 25 53 45 65 45 11 0 67 11 125 24 58 14 109 21 113 16 5 -4 4 -11 -2 -14 -6 -4 -11 -18 -11 -32 0 -13 -5 -24 -11 -24 -5 0 -8 -4 -5 -8 3 -5 -4 -19 -15 -30 -11 -12 -17 -22 -14 -22 4 0 -1 -7 -9 -16 -37 -36 -17 -42 65 -18 69 20 113 40 129 59 7 8 18 15 24 15 7 0 23 11 36 25 13 14 29 25 35 25 6 0 55 44 109 97 94 93 103 100 254 173 87 42 176 89 200 103 47 31 68 27 91 -16 14 -26 8 -97 -8 -97 -14 0 -19 -59 -6 -64 7 -2 29 13 48 35 20 21 41 39 46 39 9 0 51 64 56 85 4 17 29 69 47 95 9 14 18 37 20 52 2 15 7 30 11 34 4 4 7 15 7 25 0 9 33 43 73 75 39 32 108 91 152 130 81 71 110 90 119 75 3 -4 18 -8 33 -9 15 0 58 -7 95 -15 51 -11 71 -12 83 -3 17 13 10 56 -10 56 -16 0 -105 83 -105 98 0 7 34 52 76 100 323 373 575 891 678 1394 49 240 60 354 60 638 0 284 -11 398 -60 638 -234 1139 -1091 2065 -2209 2387 -131 37 -204 53 -415 93 -33 6 -44 12 -42 24 3 18 -37 32 -64 21 -10 -3 -15 -2 -12 3 4 5 -25 10 -66 11 -39 1 -90 4 -114 6 -23 2 -44 2 -46 0z"/>
</g>
<g id="layer102" fill="#413f3e" stroke="none">
<path d="M3765 6676 c-44 -69 -154 -268 -164 -297 -6 -19 -30 -64 -51 -101 -22 -36 -40 -71 -40 -76 0 -9 -30 -82 -69 -167 -11 -22 -29 -65 -41 -95 -13 -30 -33 -77 -46 -105 -20 -44 -137 -382 -149 -432 -3 -10 -24 -91 -47 -179 -37 -141 -41 -167 -32 -201 6 -22 7 -48 3 -59 -6 -15 -8 -12 -8 14 -1 43 -31 45 -31 2 0 -16 -5 -30 -10 -30 -6 0 -9 -3 -8 -7 2 -7 -12 -107 -17 -123 -12 -42 -24 -151 -28 -265 -1 -38 -5 -74 -9 -80 -3 -5 -4 -28 -2 -50 3 -22 6 -89 8 -150 3 -94 11 -137 54 -300 28 -104 56 -191 61 -193 6 -2 23 -29 38 -60 15 -31 33 -63 40 -70 7 -7 16 -24 19 -38 3 -13 12 -24 20 -24 8 0 14 -4 14 -8 0 -10 55 -77 83 -101 9 -9 17 -21 17 -28 0 -7 6 -13 14 -13 8 0 23 -11 34 -25 11 -13 22 -22 25 -19 3 3 13 -6 22 -20 10 -14 21 -24 25 -21 4 3 13 -1 19 -9 22 -26 59 -7 81 43 12 25 25 53 30 61 5 8 24 40 42 70 18 30 40 64 50 74 10 11 20 28 24 38 3 10 9 18 12 18 4 0 16 16 26 35 11 19 22 35 26 35 4 0 13 14 20 30 7 17 16 30 20 30 3 0 20 19 37 43 45 61 127 147 141 147 7 0 12 4 12 10 0 13 52 60 67 60 7 0 13 7 13 15 0 8 7 15 16 15 22 0 209 194 254 265 22 33 43 65 49 71 5 7 7 14 5 17 -3 3 1 16 9 29 24 38 30 112 14 171 -8 28 -15 59 -15 67 0 8 -3 35 -6 60 -23 191 12 314 124 434 55 59 139 123 173 131 14 4 28 13 31 20 2 7 19 16 36 20 18 4 40 14 50 23 25 21 72 37 239 83 80 22 151 45 158 51 22 18 14 37 -19 47 -31 10 -30 10 10 5 46 -6 159 -68 247 -134 28 -20 71 -50 97 -65 27 -15 56 -39 67 -53 41 -60 76 -253 95 -532 2 -25 8 -63 14 -85 7 -22 11 -77 11 -122 0 -45 2 -86 5 -91 7 -11 20 -448 17 -567 -1 -49 -2 -130 -2 -180 0 -49 -4 -126 -10 -169 -6 -44 -12 -105 -14 -135 -2 -31 -8 -83 -13 -116 -5 -34 -6 -73 -1 -90 5 -16 9 -50 9 -75 0 -25 7 -70 16 -100 10 -34 17 -108 19 -193 4 -128 2 -144 -21 -209 -14 -38 -23 -76 -20 -84 3 -7 -1 -31 -8 -51 -14 -41 -12 -56 13 -84 23 -28 66 -22 108 15 7 6 18 16 25 21 15 12 98 38 104 32 9 -8 14 -63 7 -72 -5 -5 -44 -41 -87 -80 -116 -101 -123 -109 -156 -150 -26 -33 -30 -44 -26 -86 3 -26 2 -50 -2 -53 -3 -4 -7 -14 -8 -24 -4 -24 -9 -43 -23 -76 -6 -16 -16 -49 -21 -75 -6 -25 -15 -57 -20 -71 -5 -14 -11 -36 -14 -50 -2 -14 -13 -54 -24 -90 -35 -114 -35 -113 -1 -151 17 -19 39 -45 48 -58 l18 -24 35 39 c361 403 623 923 732 1456 49 240 60 354 60 638 0 284 -11 398 -60 638 -174 851 -709 1607 -1453 2056 -302 183 -688 333 -1021 395 -63 12 -134 26 -158 30 -38 8 -45 6 -57 -13z"/>
</g>
<g id="layer103" fill="#ffffff" stroke="none">
<path d="M3765 6676 c-44 -69 -154 -268 -164 -297 -6 -19 -30 -64 -51 -101 -22 -36 -40 -71 -40 -76 0 -9 -30 -82 -69 -167 -11 -22 -29 -65 -41 -95 -13 -30 -33 -77 -46 -105 -20 -44 -138 -384 -149 -432 -3 -10 -23 -85 -45 -168 -32 -118 -40 -160 -34 -195 9 -65 9 -113 1 -325 -4 -114 -3 -220 4 -265 14 -109 68 -329 90 -370 10 -19 28 -60 39 -92 11 -31 27 -62 35 -68 8 -7 15 -17 15 -22 0 -13 59 -89 82 -106 9 -7 24 -19 32 -27 8 -8 23 -15 32 -15 32 0 94 52 148 125 30 39 62 77 71 85 10 8 38 46 63 85 25 38 56 80 68 93 12 12 40 59 63 105 39 77 52 120 81 272 17 82 56 197 95 275 17 36 40 83 49 105 30 69 144 258 181 300 50 57 106 113 134 133 14 9 45 35 70 58 94 83 201 131 401 179 84 21 267 29 328 16 54 -11 204 -93 276 -150 22 -17 63 -45 92 -62 30 -16 62 -42 72 -57 42 -60 77 -253 96 -532 2 -25 8 -63 14 -85 7 -22 11 -77 11 -122 0 -45 2 -86 5 -91 7 -11 20 -448 17 -567 -1 -49 -2 -130 -2 -180 0 -49 -4 -126 -10 -169 -6 -44 -12 -105 -14 -135 -2 -31 -8 -83 -13 -116 -5 -34 -6 -73 -1 -90 5 -16 9 -50 9 -75 0 -25 7 -70 16 -100 10 -34 17 -108 19 -193 4 -128 2 -144 -21 -209 -14 -38 -23 -76 -20 -84 3 -7 -1 -31 -8 -51 -14 -41 -12 -56 13 -84 23 -28 66 -22 108 15 7 6 18 16 25 21 15 12 98 38 104 32 9 -8 14 -63 7 -72 -5 -5 -44 -41 -87 -80 -116 -101 -123 -109 -156 -150 -26 -33 -30 -44 -26 -86 3 -26 2 -50 -2 -53 -3 -4 -7 -14 -8 -24 -4 -24 -9 -43 -23 -76 -6 -16 -16 -49 -21 -75 -6 -25 -15 -57 -20 -71 -5 -14 -11 -36 -14 -50 -2 -14 -13 -54 -24 -90 -35 -114 -35 -113 -1 -151 17 -19 39 -45 48 -58 l18 -24 35 39 c361 403 623 923 732 1456 49 240 60 354 60 638 0 284 -11 398 -60 638 -174 851 -709 1607 -1453 2056 -302 183 -688 333 -1021 395 -63 12 -134 26 -158 30 -38 8 -45 6 -57 -13z"/>
<path d="M2335 6250 c-3 -5 -13 -10 -21 -10 -16 0 -95 -35 -243 -108 -86 -43 -267 -154 -316 -195 -11 -9 -63 -49 -115 -89 -216 -165 -408 -364 -585 -604 -129 -175 -232 -340 -357 -575 -53 -99 -168 -367 -192 -449 -9 -30 -23 -75 -31 -100 -26 -86 -74 -285 -79 -335 -3 -27 -7 -63 -10 -80 -23 -135 -25 -551 -4 -655 6 -30 11 -66 10 -78 -3 -46 50 -229 92 -317 24 -49 61 -128 81 -174 98 -220 334 -497 559 -656 38 -27 77 -56 86 -64 9 -9 30 -24 46 -34 16 -9 52 -33 79 -53 107 -75 452 -229 575 -256 25 -5 101 -23 170 -40 68 -16 147 -33 175 -38 27 -5 102 -17 165 -28 292 -50 534 -69 875 -69 149 0 324 3 390 8 151 10 261 17 373 25 48 4 149 22 224 40 75 19 149 34 164 34 41 0 88 -34 188 -137 89 -93 119 -113 186 -128 31 -7 33 -6 26 16 -19 66 -41 347 -28 364 4 6 40 35 80 64 77 56 92 75 92 114 0 13 11 46 25 73 16 32 24 63 23 94 -3 108 17 214 47 255 12 16 33 50 46 75 37 68 127 154 204 192 17 8 72 26 124 39 58 15 101 32 115 46 31 30 82 194 104 333 16 102 8 193 -31 345 -21 79 -34 153 -32 170 3 17 8 46 11 65 4 19 6 247 5 505 -4 950 -12 1157 -48 1255 -47 127 -207 300 -278 300 -11 0 -103 -22 -204 -50 -151 -40 -195 -56 -240 -87 -68 -46 -85 -61 -100 -90 -18 -35 -12 -115 16 -208 5 -19 5 -19 -14 -2 -11 9 -26 43 -33 75 -26 111 -40 117 -93 36 -79 -120 -80 -214 -8 -474 78 -277 76 -264 55 -307 -11 -20 -48 -62 -84 -91 -459 -378 -665 -592 -768 -798 -56 -111 -72 -175 -81 -325 -10 -161 -1 -209 65 -347 52 -110 53 -113 64 -150 18 -65 -5 -77 -73 -38 -23 14 -111 47 -194 75 -198 66 -298 111 -484 218 -42 23 -82 43 -90 43 -28 0 -198 111 -279 183 -100 88 -225 216 -299 307 -29 36 -59 73 -68 84 -38 47 -171 257 -198 313 -31 65 -64 85 -66 41 -3 -73 47 -282 87 -361 13 -27 24 -53 24 -59 0 -20 73 -173 122 -256 49 -83 57 -123 21 -103 -25 13 -233 200 -233 209 0 4 -23 32 -51 62 -28 30 -60 68 -72 83 -12 15 -32 40 -45 55 -33 40 -170 247 -213 322 -164 290 -90 882 206 1665 101 268 331 778 373 828 9 10 11 17 4 17 -6 0 -14 -4 -17 -10z m2868 -3237 c38 -122 36 -141 -18 -205 -75 -87 -119 -128 -134 -126 -15 3 -50 97 -51 135 0 28 68 180 97 216 13 16 23 32 23 36 0 7 36 28 50 30 3 1 18 -38 33 -86z"/>
<path d="M5381 1341 c-33 -29 -52 -55 -72 -103 -6 -16 -15 -28 -19 -28 -4 0 -6 -9 -3 -19 3 -11 0 -43 -6 -72 -6 -28 -10 -53 -8 -55 10 -11 299 245 291 257 -3 5 -16 9 -30 9 -13 0 -24 5 -24 10 0 6 -10 10 -23 10 -13 0 -27 3 -31 7 -16 16 -44 10 -75 -16z"/>
/>
</g>


</svg>